P3
# Ein Farbbild der Größe 3 x 2 Pixel, maximaler Helligkeit 255.
# Darauf folgen die RGB-Tripel.
3 2
255
255   0   0     0 255   0     0   0 255
255 255   0   255 255 255     0   0   0
